<svg height="155" viewBox="0 0 545.805337 155" width="545.805337" xmlns="http://www.w3.org/2000/svg" xmlns:xlink="http://www.w3.org/1999/xlink"><radialGradient id="a" cx="-2.215133%" cy="104.385503%" gradientTransform="matrix(1 0 0 .999837 0 .00017)" r="170.902641%"><stop offset="0" stop-color="#4dbf5e"/><stop offset=".27392702" stop-color="#4dbf5e"/><stop offset=".730769" stop-color="#59caf5"/><stop offset="1" stop-color="#59caf5"/></radialGradient><radialGradient id="b" cx="31.165355%" cy="39.977049%" gradientTransform="matrix(.997804 0 0 1 .000684 0)" r="42.697485%"><stop offset="0" stop-color="#a9dad9"/><stop offset=".96863558" stop-color="#00bdf2"/><stop offset="1" stop-color="#00bdf2"/></radialGradient><radialGradient id="c" cx="20.554045%" cy="38.874322%" gradientTransform="matrix(.933987 0 0 1 .013568 0)" r="92.006186%"><stop offset="0" stop-color="#33c3ee"/><stop offset="1" stop-color="#2aabe8"/></radialGradient><radialGradient id="d" cx="47.972037%" cy="60.281319%" gradientTransform="matrix(.65174315 .70710678 -.65174315 .70710678 .559945 -.162653)" r="93.651105%"><stop offset="0" stop-color="#bfdf14"/><stop offset="1" stop-color="#33b652"/></radialGradient><radialGradient id="e" cx="34.491364%" cy="85.258526%" gradientTransform="matrix(1 0 0 .942304 0 .049191)" r="92.550944%"><stop offset="0" stop-color="#4dbf5e"/><stop offset=".37484762" stop-color="#4dbf5e"/><stop offset="1" stop-color="#59caf5"/></radialGradient><g fill="none"><g transform="matrix(1 0 0 -1 108.805337 155)"><path d="m31.9944026 117.11668c-2.5879062 0-7.8550283 4.037247-12.3532275 4.037247-2.4965966 0-4.70725-1.15281-4.70725-3.84672 0-6.446572 23.9663666-5.493936 23.9663666-21.247401 0-9.2417753-7.7685245-16.2526942-19.6411752-16.2526942-7.7661216 0-19.2591165 4.4231253-19.2591165 10.6695235 0 2.1175049 2.10012076 6.157164 5.94233253 6.157164 5.36323747 0 7.75651007-4.7173571 14.26832617-4.7173571 4.2194646 0 5.4617557 1.3505726 5.4617557 3.9480131 0 6.3428677-23.94714357 5.3878197-23.94714357 21.2522247 0 9.620418 7.74930141 16.161048 18.68002147 16.161048 6.7953564 0 17.2406938-3.183493 17.2406938-10.008708 0-3.173845-2.3884668-6.15234-5.6515835-6.15234m14.2510254 7.804139c0 4.613652 2.8666408 7.681382 6.8962775 7.681382 4.0272339 0 6.8962775-3.06773 6.8962775-7.681382v-36.9333372c0-4.6160642-2.8690436-7.6934403-6.8962775-7.6934403-4.0296367 0-6.8962775 3.0773761-6.8962775 7.6934403zm14.0304406 20.217589c0-3.979365-3.1694042-7.343738-7.1341631-7.343738-3.7989599 0-7.1365659 3.446372-7.1365659 7.343738 0 3.622429 3.337606 6.986802 7.1365659 6.986802 3.7845426 0 7.1341631-3.275139 7.1341631-6.986802m7.1831819-20.130525c0 4.61124 2.8714466 7.691028 6.8938746 7.691028 3.5490599 0 5.8438143-1.929389 6.3315998-5.199704 3.3472176 3.656193 7.7541072 5.778521 12.8386101 5.778521 5.7476989 0 10.623151-2.40209 14.268326-7.027801 3.825392 4.418302 9.871048 7.027801 14.556672 7.027801 11.219066 0 18.881864-6.54063 18.881864-18.664431v-26.5363397c0-4.6160642-2.873849-7.6910286-6.89868-7.6910286s-6.898681 3.0749644-6.898681 7.6910286v24.1366617c0 5.580759-3.070886 9.519125-8.05687 9.519125-5.067683 0-8.136166-3.938366-8.136166-9.519125v-24.1366617c0-4.6160642-2.87385-7.6910286-6.896278-7.6910286-4.029636 0-6.8986801 3.0749644-6.8986801 7.6910286v24.1366617c0 5.580759-3.0636773 9.519125-8.0448561 9.519125-5.6539865 0-8.1433745-3.938366-8.1433745-9.519125v-24.1366617c0-4.6160642-2.8714465-7.6910286-6.9034862-7.6910286-4.022428 0-6.8938746 3.0749644-6.8938746 7.6910286zm105.5168905-32.5121416c7.187027 0 10.733684 7.5005014 10.733684 13.9374266 0 6.552689-3.546657 14.14966-10.733684 14.14966-7.374451 0-10.829798-6.924096-10.829798-13.657665 0-6.73357 3.25831-14.4294216 10.829798-14.4294216m-24.622354 32.5126236c0 4.611241 2.866641 7.691029 6.898681 7.691029 3.835003 0 6.038448-2.131976 6.893875-5.778522 2.59992 4.227775 7.965561 6.357338 13.126956 6.357338 14.859435 0 22.238693-13.95672 22.238693-27.414212 0-13.0812599-8.823391-26.0564038-22.70245-26.0564038-4.313177 0-9.013218 1.630334-12.663199 4.8065914v-16.9135101c0-4.6160642-2.864238-7.7006755-6.893875-7.7006755-4.03204 0-6.898681 3.0846113-6.898681 7.7006755zm56.238303 22.300606c0 4.616065 2.885864 7.691029 6.903486 7.691029 4.027234 0 6.89868-3.074964 6.89868-7.691029v-59.2322549c0-4.6112407-2.871446-7.6958521-6.89868-7.6958521-4.017622 0-6.903486 3.0846114-6.903486 7.6958521zm56.605943-36.158446c-.761714 6.058283-4.589508 10.58029-11.010015 10.58029-6.136966 0-10.260315-4.714946-10.928317-10.58029zm-21.647583-9.229716c.965959-6.8276271 6.607931-10.0014727 13.033244-10.0014727 7.088508 0 11.971169 5.5855824 15.609135 5.5855824 2.974771 0 5.658792-2.9833184 5.658792-5.9690486 0-5.9594015-12.269126-11.7330994-22.512621-11.7330994-15.525035 0-25.869451 11.352045-25.869451 26.6303973 0 14.048367 10.144977 26.845042 24.718469 26.845042 14.938731 0 24.812182-13.672135 24.812182-25.200237 0-4.138541-1.821386-6.157164-6.036045-6.157164z" fill="#60bb46"/><path d="m298.459803 105.69178c0-3.436955.747672-6.2750282 2.240622-8.5214355 1.742174-2.6889543 4.229624-4.0262161 7.462351-4.0262161s5.722573 1.3372618 7.462351 4.0262161c1.492949 2.3089412 2.243018 5.1470145 2.243018 8.5214355 0 3.244544-.781222 6.022489-2.334081 8.33143-1.806876 2.681739-4.258381 4.026216-7.371288 4.026216-3.110511 0-5.564412-1.344477-7.371288-4.026216-1.552859-2.308941-2.331685-5.086886-2.331685-8.33143m-7.088515-45.3201848c-4.914991 0-7.371288 3.5956948-7.371288 10.7798689v49.6951479c0 7.124045 2.456297 10.686068 7.371288 10.686068 2.798981 0 5.12827-1.592207 6.995055-4.776622 3.235124 3.372016 7.280226 5.055619 12.128118 5.055619 6.714678 0 12.221576-2.681739 16.513507-8.050027 3.918093-4.99549 5.878338-10.955445 5.878338-17.884673 0-6.9268237-2.024947-12.9517169-6.06286-18.0722749-4.29193-5.6160183-9.798829-8.42523-16.513507-8.42523-4.605857 0-8.459248 1.4358727-11.567363 4.3052131v-12.5452468c0-7.1745535-2.46109-10.7678432-7.371288-10.7678432m61.200144 45.7418078c0-3.323913.74288-6.080212 2.23583-8.2761112 1.739777-2.568697 4.164921-3.8506404 7.280225-3.8506404 3.043412 0 5.442196 1.2819434 7.181973 3.8506404 1.495346 2.2560282 2.240623 5.0099212 2.240623 8.2761112 0 3.133906-.77643 5.830076-2.338874 8.083699-1.739778 2.503758-4.10022 3.759245-7.083722 3.759245-3.115304 0-5.540448-1.22422-7.280225-3.665444-1.49295-2.1959-2.23583-4.923336-2.23583-8.1775m19.40355-20.6481874c-2.925989-3.6870904-7.028605-5.5222176-12.315036-5.5222176-6.714678 0-12.19282 2.7081956-16.422444 8.1269918-3.918093 4.9834646-5.875942 10.9386086-5.875942 17.8558112 0 6.914798 2.056101 12.893993 6.158716 17.942397 4.354236 5.423606 9.918648 8.131802 16.700425 8.131802 4.725676 0 8.638977-1.748542 11.754281-5.24322 1.679868 3.184414 4.011553 4.776621 6.997452 4.776621 4.850288 0 7.277829-3.564427 7.277829-10.690878v-29.742048c0-7.1913896-2.427541-10.7870843-7.277829-10.7870843-3.045809 0-5.37989 1.7196801-6.997452 5.1518249m57.838252 46.0686674c2.11601 0 3.841409-.642175 5.18099-1.919308 1.337184-1.284348 2.005776-2.984787 2.005776-5.103722 0-1.496001-.409782-3.215681-1.212572-5.147014l-22.394242-53.3726178c-1.672678-3.9949492-3.827031-5.9912212-6.436697-5.9912212-2.173523 0-3.934868.6397691-5.26726 1.9169022-1.33958 1.277133-2.005776 3.011244-2.005776 5.1975227 0 2.1838735.992104 5.3682881 2.983502 9.5484336 1.428247 2.9366845 2.858891 5.8348867 4.289534 8.7066322l-14.831243 34.7399433c-.498448 1.185738-.74288 2.77554-.74288 4.774217 0 1.811076.709331 3.374421 2.144767 4.682821 1.425851 1.313211 3.076962 1.967411 4.938955 1.967411 2.051308 0 3.702419-.72395 4.94854-2.164633.807583-.995731 1.646319-2.660092 2.516207-4.971439l8.30588-22.358246 9.048759 23.572846c1.490553 3.946846 3.668869 5.921472 6.52776 5.921472" fill="#00a8e5"/><path d="m241.182146 35.2855168c-2.423511 0-5.169195-1.2354941-6.751209-8.7616516-1.762335-8.373904 1.752717-8.9085622 3.452541-8.9085622 1.54595 0 4.839809.845338 6.479526 8.8603948 1.14684 5.6066863.235619 8.809819-3.180858 8.809819m12.045426-8.809819c-2.216743-12.6680285-10.085941-14.284045-16.753-14.284045-6.573293 0-12.63207 4.5373698-10.915416 14.349071 1.336778 7.665843 5.883265 14.7609023 16.933321 14.219019 7.708111-.3781142 12.242577-5.669304 10.735095-14.284045m11.728062-14.1814485c1.053073 0 2.99092.2601041 4.640254.5683755l.41594.4142397 1.543545 5.3730744-.305343.2552873c-.928051-.3082715-2.567767-.9416729-3.815587-.4455486-.127806.0504913-.250303.0941815-.366455.1359489l-.13627.0495102c-1.109103.4100978-1.542302.8230566-.264239 6.1172463 1.348799 5.5826027 2.312914 9.5901311 2.312914 9.5901311l4.743638-.10356.411131.363664c.673198 2.4276374.877561 2.9960128 1.601249 5.1659545l-.204364.3612556-5.262962-.1011516 2.267233 8.9880385-.307747.3082714c-3.555925-1.0307826-4.592169-1.2884782-8.458246-2.1675334l-.358237-.3612556-1.500268-6.6663693h-3.399648l-.363046-.2576956-1.49546-5.2165304.307748-.4166481 3.611223.10356-.00462-.0195705c-.081317-.3443458-1.22803-5.19569-2.801171-11.6080419-2.168491-8.8204491 2.198967-10.209131 5.932677-10.402052l.285837-.0125867c.331737-.0121782.656889-.0160137.970274-.0160137zm6.237174-12.2942493c1.906592.05298415 3.45735.15413571 5.207664.15413571 1.185308 0 2.320127-.05057578 3.50784-.05057578l.360641.25769563 2.938026 12.34530684.589184.0001046c5.334617.0044848 11.506389.1748463 16.430691 6.1990408 2.680769 3.2537085 3.969461 7.6465761 3.969461 11.3651001 0 6.5628094-3.454946 10.4378774-8.614524 10.4378774-3.349157 0-5.568304-1.5509906-6.909891-2.4806215l.620304 2.2735016-.310152.3612556-8.818887-1.4474306-.363046-.3612556c-.162289-1.9608149-1.730411-10.3255537-3.621887-18.7764252l-.207573-.9219511c-.17396-.7680711-.350268-1.5349553-.528108-2.2959061l-.214094-.909989c-.071575-.3021778-.143343-.6031025-.215253-.9024702-2.116461-8.80469156-3.843673-14.16339595-4.057729-14.81819363l-.0167-.05090643c-.003737-.01134119-.005628-.01703758-.005628-.01703758zm20.212755 20.4566984c-1.805612-1.4980064-4.464742-2.3072189-6.909892-2.0133977l3.298668 14.6693843c1.086733.7249195 2.219148 1.5004148 3.717012 1.5004148 1.02903 0 3.815587-.5177997 3.815587-4.8576832 0-3.9256438-1.856102-7.5430162-3.921375-9.2987182zm-104.974568-17.49006771c14.067423 0 25.470907 11.42290091 25.470907 25.57207721l-9.203571.0048167c0-9.1325406-7.335448-16.3576519-16.267336-16.3576519-8.984782 0-16.267336 7.294954-16.267336 16.2974426 0 8.9904468 7.265724 16.2781757 16.23608 16.2950343v9.2216504c-14.052997-.0168586-25.442056-11.4349428-25.442056-25.5166847 0-14.0937837 11.405889-25.51668461 25.473312-25.51668461zm14.370602 33.36556391c3.579968 0 6.477122 2.9044947 6.477122 6.4857415 0 3.5860636-2.897154 6.4881499-6.477122 6.4881499-3.575159 0-6.474717-2.9020863-6.474717-6.4881499 0-3.5812468 2.899558-6.4857415 6.474717-6.4857415zm-14.30761-19.1703878c6.239098 0 11.297696 5.0696198 11.297696 11.319341 0 6.2521296-5.058598 11.319341-11.3001 11.319341-6.239098 0-11.300101-5.0672114-11.300101-11.319341 0-6.2497212 5.061003-11.319341 11.302505-11.319341zm155.051324-3.9591201-.307747-.2673291-3.832418-.0794763-.310151.2697375 1.538737 6.9553738 1.49546 7.1889857 2.185487 9.9923289-8.749162-16.2950343-4.219506-7.8416541-.302939-.1902612-3.803566-.0794763-.187533.2697375-.387089 5.5729692-1.226181 18.4071751-1.572397-6.1871036-2.531703-9.4167283-2.147019-8.4148463-.233215-.1902613-3.450137-.0409423-.192342.2697375 2.223956 7.5719166 2.721641 9.6816491 2.572576 9.4937963.271683.1902612 5.635625.0409423.233215-.2312035.418344-6.878306.538558-7.4948487c.310151-4.1496223.346216-4.9564264.456812-8.1475172l7.984603 15.2955606 3.798757 7.2251113.346216.1902612 5.753434.0794762.189938-.2697374-1.841676-9.5275134-1.459396-7.8825964zm19.952852 12.7600282c0 3.8822931-2.493235 4.5349615-3.911758 4.5349615-6.025118 0-6.792082-9.3757861-6.792082-10.8015414 0-3.0730807 1.84408-4.4193597 3.916567-4.4193597 4.1041 0 5.640433 4.2290984 6.328056 7.379247.266875 1.1174838.459217 2.2277426.459217 3.3066926m-6.866614-13.5278167c-5.101876 0-7.905262 2.6516158-7.905262 7.880188 0 4.6890972 2.495639 12.9883417 10.860118 12.9883417 5.024938 0 8.015858-2.8057515 8.015858-7.7621779 0-1.3486874-.228406-2.731092-.574622-4.0773711-.839092-3.3042842-3.180858-9.0289807-10.396092-9.0289807m16.537817 3.4581791.613091-.038534c1.995549 0 4.758063 0 7.253702 1.6906761 2.839451 1.9604135 4.176229 5.3802995 4.176229 7.8392457 0 3.4969539-2.103742 4.8432329-4.560913 4.8432329-1.957081 0-3.344349-.845338-4.568126-1.6136081zm-4.681127-2.8057516 2.038827 8.6869922 1.565184 7.0324416c.692432 2.880411 1.343991 5.8017643 1.923421 8.6484582.497686 2.4180039.649155 3.3018758.88237 5.0696197l.305343.2721459 4.185846.7273279.189938-.2697375-1.079521-4.265224-1.762334-7.379247c1.613269.8838719 3.147198 1.7292099 5.604369 1.7292099 3.793948 0 6.982019-2.5721396 6.982019-7.4153725 0-1.9604135-.615495-5.650037-3.188071-8.6099243-3.452541-3.9569526-7.708111-4.2266901-12.660921-4.4169513h-2.110955l-2.685577-.0409423zm30.959391-.3092347 3.918971.1180101.307747.2312036c.32061 1.8030265.552863 3.10628.781803 4.3287851l.098162.5202086c.393821 2.0708325.813607 4.0802805 1.687803 8.139348l1.49546 7.1095095 2.262424 10.0693967-.189938.2287952-4.219505-.7273279-.266875-.2721458c-.461621-3.8028169-1.456992-8.5304481-2.34417-12.6030024l-1.913804-8.9519129-1.767144-7.9572559zm-3.601847 24.9422883 4.024759.5394749.305343.3082715.884774 3.5354877-.305343.2697375-3.988695-.500941-.343812-.3058631-.805433-3.5378961zm-5.527433-24.9025502 4.065632.1180101.266875.1902613 1.115584 5.8041727.807837 3.959361c1.149245 5.2237554 1.38246 6.2617631 2.339362 9.9899205l-.194747.2673291-4.181037-.6117261-.266875-.2721458c-.420748-2.7648093-.538558-3.4945455-1.228585-6.6109768l-.50009-2.37947c-1.033839-4.6481549-1.34399-5.9197745-2.413893-10.2235325zm-264.580313 6.4187888c.36545 1.124709.495281 2.5215639.495281 4.498836 0 1.9339214-.129831 3.3283679-.495281 4.4964276-.718879 2.1169576-2.329744 3.2392582-4.714787 3.2392582-2.375425 0-4.039184-1.07895-4.758063-3.2392582-.358237-1.07895-.495281-2.3361193-.495281-4.4964276s.137044-3.4632367.495281-4.498836c.718879-2.1603082 2.382638-3.2850172 4.758063-3.2850172 2.385043 0 3.995908 1.1680596 4.714787 3.2850172m-13.288437-6.2978886c-.271684 0-.4496.1782194-.4496.4503652v29.6879823c0 .2697375.177916.4479569.4496.4479569h2.870706c.274088 0 .4496-.1782194.4496-.4479569v-11.0664621h.045681c1.033839 1.709943 2.873111 2.9695207 6.106863 2.9695207 3.726629 0 6.335269-1.7532937 7.409981-5.1731797.584239-1.709943.76456-3.4174776.76456-6.0715018 0-2.6997833-.180321-4.4049095-.76456-6.1196693-1.074712-3.4174776-3.683352-5.1707746-7.409981-5.1707746-3.233752-.002405-5.073024 1.3053401-6.106863 3.0128747h-.045681v-2.0687902c0-.2721458-.175512-.4503652-.4496-.4503652zm23.703283-8.09573721c-.269279 0-.447196.18062778-.447196.45036527v2.6058568c0 .27214586.177917.45277364.447196.45277364h.812645c1.74791 0 2.69279.76345342 3.635267 3.2392582l.718879 1.9796805-7.905262 20.4639235c-.088958.2697375.045681.4503653.360641.4503653h3.139986c.271683 0 .449599-.1348688.540962-.4503653l5.659667-15.5628897h.091363l5.431261 15.5628897c.088958.3154965.266875.4503653.536154.4503653h3.05824c.26447 0 .447195-.1806278.353428-.4503653l-8.484692-22.7591005c-1.887357-5.08406997-3.543904-6.43275741-6.780061-6.43275741z" fill="#939598"/></g><path d="m0 8.20266646c0-4.53066655 3.67199991-8.20266646 8.20133313-8.20266646 4.53199987 0 8.20399977 3.67199991 8.20399977 8.20266646 0 4.53333324-3.6719999 8.20533314-8.20399977 8.20533314-4.52933322 0-8.20133313-3.6719999-8.20133313-8.20533314" fill="url(#a)" transform="matrix(1 0 0 -1 31.253333 44.751991)"/><path d="m0 46.6506655c0-25.7653327 20.8879995-46.6506655 46.6519988-46.6506655 8.9519998 0 17.3199996 2.5226666 24.4226661 6.89866649 12.1906664 7.50533311 20.6586661 20.45999951 22.0239994 35.47199911.072.8053333.2826667 3.3853333.3146667 3.8039999.0146667.1293333.02.256.0293333.3826667.02.2986666.0346667.5933333.048.8839999.0026667.1373334.0066667.2746667.0093357.4146667.005331.3026667.005331.604 0 .9053333 0 .1093333 0 .2173333-.0053357.3293333-.0106666.4093346-.0293333.8226667-.0613333 1.2293333 0 .0053334-.0026667.012-.0026667.0186667-.032.3986667-.076.7893333-.1293333 1.184-.0106667.1-.0253333.2-.0386667.3013333-.0466666.3053333-.092.608-.148.908-.016.1013333-.0373333.208-.0586666.312-.0613334.3253333-.1293334.644-.2093334.9626666-.0133333.064-.028.1293333-.0413333.192-.1106667.4493333-.1413333.708-.252 1.0706667-.0626666.3386666-.1786666.5546666-.3333333 1.1013333-1.776 4.8599998-5.0173332 8.7626664-9.2679998 10.7626664-.0853333.04-.1746666.0826666-.2573333.1226666-.0573333.0253334-.116.048-.1733333.0733334-.0906667.0386666-.1866667.0813333-.2773334.1173333-.168.0693333-.3399999.1386666-.5119999.204-.0226667.008-.0466667.0173333-.0706667.0266666-1.016.3733334-2.0813333.6453334-3.1839999.7933334-1.156.156-2.3013333.168-3.4333333.0613333.06.0066667.112.0133333.168.0186667-.0613333-.0053334-.1253333-.0146667-.1906666-.0186667-.0946667-.0106667-.1866667-.0186667-.2746667-.0293333-.2946667-.032-.5866667-.0773334-.8786666-.124-2.7026666-.464-5.2679999-1.636-7.5333332-3.368l.1213333.0826667s-2.0639999-1.4546666-4.3679999-5.3359999c-1.2826666-2.1626666-2.6426666-5.0786665-3.7639999-8.9066664-.0786666-.304-.1666666-.6026667-.252-.9013333 0-.0026667-.004-.0053333-.004-.0053333-.7239999-2.6706666-1.7279999-4.6386666-2.6879999-6.3173332-1.2106666-2.1173333-2.4773333-3.7319999-4.3533332-5.2799999-3.7439999-3.4826666-8.4386665-5.4626665-13.345333-5.2546665-.7573333.024-1.52.0946666-2.2786666.2213333-10.7799997 1.8253333-17.7493329 13.7906663-15.561333 26.730666.02.1226667.0466667.244.068.3653333 1.176 6.8106665 4.6786666 12.5319997 9.3466665 16.0759996 2.0239999 1.5413333 4.2719999 2.6653333 6.6346665 3.2986666.7573333.2 1.5239999.3533333 2.3026666.448 1.0106666.144 2.0399999.1946667 3.0733332.1506667.204-.012.4146667-.0266667.6293334-.0466667 1.2439999-.1106667 2.6373332-.3693333 4.1666665-.8773333.772-.2533333 1.576-.5666667 2.4146666-.9586647 3.2946666-1.5413353 5.3719999-2.6653352 7.3373332-3.3533352.008-.0066667.0146666-.008.024-.0106667.0053333-.0026666.0106666-.0026666.02-.008.2786666-.1013333.5586666-.188.8413333-.2653333.0266666-.0093333.056-.016.0853333-.0226667 4.5439999-1.2133333 9.1413331.7093333 10.5493331 4.5706666.9266666 2.5359999.264 5.3199998-1.504 7.4999998-.632.7773333-1.4053333 1.476-2.2946666 2.0599999-.9.652-2.0453333 1.3426667-3.4666666 1.9706667-4.4959999 1.9746666-8.8053331 2.0893332-10.717333 2.2719999-.892.0533333-1.7946667.0853333-2.7.0853333-6.8159998 0-13.293333-1.4626666-19.1306662-4.0906665-16.2253329-7.3053332-27.5213326-23.6133328-27.5213326-42.5573323z" fill="url(#b)" transform="matrix(1 0 0 -1 0 93.966657)"/><g transform="matrix(1 0 0 -1 .001333 93.966656)"><path d="m17.3426662 25.518666c-.472.136-.9173333.3533334-1.3559999.5506667-1.3093333.4973333-2.584 1.1613333-3.8053333 2.0333333-1.1453333.9573333-2.1679999 2.0626666-3.06133323 3.2799999-1.2413333 1.3986666-2.17999994 2.9533332-2.87866659 4.6199999-2.00133329 4.1066665-3.07999993 9.0426664-3.10799992 14.3546663-.02533334 4.8413332.82133331 9.9986664 2.64533326 15.1319996 1.89599995 5.3386665 4.62799988 10.0319997 7.86533318 13.8559996-1.0733333-1.0293333-2.1146667-2.0973332-3.1186666-3.1839999-6.57866653-8.0386664-10.5253331-18.3119995-10.5253331-29.5119992 0-1.9333333.11866666-3.8399999.34799999-5.7079999 1.5693333-12.861333 8.37066646-24.1039994 18.21066621-31.53866587 6.6666665-4.65466655 14.4279996-7.81866647 22.4613328-9.0653331 1.8466666-.22 3.7253332-.33733333 5.6306665-.33733333 8.9519998 0 17.3199996 2.5226666 24.4226661 6.89866649 5.4826665 3.37733321 10.209333 7.86133311 13.8799996 13.13466631-11.4626664 11.9226664-31.9039992 15.9239996-45.3026655 9.6466665-13.3946664-6.8639999-17.6386663-5.8199999-22.3079995-4.1613333z" fill="url(#c)"/><path d="m58.9519985 32.5773325c-6.3279998-19.6333328-11.453333-22.73333275-17.5853329-25.64933267-.5906666-.32799999-1.2266666-.54399999-1.8519999-.77999998-1.748-.78933332-3.6266666-1.3773333-5.6519999-1.71733329-2.0359999-.184-4.0973332-.10133333-6.1479998.21199999-.5826667.03466667-1.1586667.09733333-1.728.17466666 6.2293332-3.08399992 13.2466664-4.81733321 20.6639995-4.81733321 8.9519998 0 17.3199996 2.5226666 24.4226661 6.89866649 12.189333 7.50399981 20.6586661 20.45999951 22.0239994 35.47199911.0733333.8053333.2813333 3.3853333.3146667 3.8039999.0146666.128.02.256.028.3826667.0213333.2973333.036.5933333.0493333.8839999.0026667.1373334.0066667.2746667.0093333.4146667.0066667.3013333.0066667.604 0 .904 0 .1106666 0 .2186666-.0053333.3306666-.0106667.4093346-.0293333.8226667-.0613333 1.228 0 .0066667-.004.0133333-.004.02-.0306667.3986667-.0746667.7893333-.128 1.1853333-.0093334.0986667-.024.1986667-.0386667.3-.0466667.3053333-.0906667.6066667-.148.908-.016.1026666-.0373333.208-.0586667.3106666-.0613333.3253334-.1306666.6453334-.2093333.9653333-.012.0626667-.028.128-.0413333.1893334-.1106667.4506666-.1413333.7093333-.2533333 1.0733333-.0626667.3386666-.1786667.5533333-.332 1.0986666-.796 2.1733333-1.884 4.1533333-3.224 5.8613332-13.8706663-6.0866665-25.5373327-17.2013329-30.0426659-29.6533326" fill="url(#d)" opacity=".743536"/><path d="m48.2533321 85.9826645c.8813333 0 1.7506666-.036 2.6146666-.084 1.852-.1786666 6.0266665-.2906666 10.3799998-2.2013333 1.3813333-.6079999 2.4906666-1.2773333 3.3639999-1.9093332.864-.568 1.6093333-1.244 2.2226666-1.996.148-.188.2853333-.3773333.42-.5706666.0213333.064.0573333.1239999.0786667.1893333.9266666 2.5359999.2653333 5.3199998-1.504 7.5013331-.632.776-1.4053333 1.4733333-2.2946666 2.0586666-.9013333.6533334-2.044 1.3426667-3.4666666 1.9706667-4.4959999 1.9746666-8.8039998 2.0906666-10.7173331 2.2719999-.8919999.0533333-1.7946666.0866667-2.6999999.0866667-6.8159998 0-13.293333-1.464-19.1306662-4.0919999-16.2253329-7.3053332-27.5199993-23.6133328-27.5199993-42.5586656 0-9.3039998 2.72533327-17.9719996 7.41866648-25.2493327-2.79199993 5.8746665-4.35733322 12.4479997-4.35733322 19.3866661 0 18.3559996 10.93866674 34.1559992 26.65866604 41.2306657 5.6546665 2.5466666 11.9306663 3.9653332 18.5333328 3.9653332z" fill="url(#e)" opacity=".610933"/></g></g></svg>