<svg height="57" viewBox="0 0 200 57" width="200" xmlns="http://www.w3.org/2000/svg" xmlns:xlink="http://www.w3.org/1999/xlink"><radialGradient id="a" cx="-2.215133%" cy="104.385503%" gradientTransform="matrix(1 0 0 .996273 0 .00389)" r="170.902641%"><stop offset="0" stop-color="#4dbf5e"/><stop offset=".27392702" stop-color="#4dbf5e"/><stop offset=".730769" stop-color="#59caf5"/><stop offset="1" stop-color="#59caf5"/></radialGradient><radialGradient id="b" cx="31.165355%" cy="39.977049%" gradientTransform="matrix(1 0 0 .998628 0 .000548)" r="42.603722%"><stop offset="0" stop-color="#a9dad9"/><stop offset=".96863558" stop-color="#00bdf2"/><stop offset="1" stop-color="#00bdf2"/></radialGradient><radialGradient id="c" cx="20.554045%" cy="38.874322%" gradientTransform="matrix(.937329 0 0 1 .012881 0)" r="91.678202%"><stop offset="0" stop-color="#33c3ee"/><stop offset="1" stop-color="#2aabe8"/></radialGradient><radialGradient id="d" cx="47.972037%" cy="60.281319%" gradientTransform="matrix(.65290554 .70836825 -.65524134 .70584306 .561496 -.162497)" r="93.48433%"><stop offset="0" stop-color="#bfdf14"/><stop offset="1" stop-color="#33b652"/></radialGradient><radialGradient id="e" cx="34.491364%" cy="85.258526%" gradientTransform="matrix(1 0 0 .938945 0 .052055)" r="92.550944%"><stop offset="0" stop-color="#4dbf5e"/><stop offset=".37484762" stop-color="#4dbf5e"/><stop offset="1" stop-color="#59caf5"/></radialGradient><g fill="none"><g transform="matrix(1 0 0 -1 39.869649 57)"><path d="m11.7237412 43.0687145c-.9482891 0-2.87832594 1.4846652-4.52660559 1.4846652-.91483043 0-1.72488239-.4239367-1.72488239-1.4146003 0-2.3706751 8.78201988-2.0203508 8.78201988-7.8135604 0-3.3985884-2.8466283-5.9767972-7.1971356-5.9767972-2.84574777 0-7.0571375 1.6265686-7.0571375 3.9236312 0 .7786953.76954937 2.2642474 2.1774549 2.2642474 1.96525651 0 2.84222581-1.73477 5.22835714-1.73477 1.54614266 0 2.00135665.4966621 2.00135665 1.4518499 0 2.3325385-8.77497596 1.9813274-8.77497596 7.8153342 0 3.5378312 2.83958433 5.9430951 6.8449391 5.9430951 2.4900293 0 6.31752487-1.1707037 6.31752487-3.6806215 0-1.1671561-.8752084-2.2624736-2.0709155-2.2624736m5.2220176 2.8699092c0 1.6966335 1.0504261 2.8247662 2.5270099 2.8247662 1.4757034 0 2.52701-1.1281327 2.52701-2.8247662v-13.5819368c0-1.6975204-1.0513066-2.8292007-2.52701-2.8292007-1.4765838 0-2.5270099 1.1316803-2.5270099 2.8292007zm5.1411885 7.4348555c0-1.4633797-1.161368-2.7006006-2.6141786-2.7006006-1.3920566 0-2.615059 1.2673754-2.615059 2.7006006 0 1.3321189 1.2230024 2.5693399 2.615059 2.5693399 1.3867738 0 2.6141786-1.2044058 2.6141786-2.5693399m2.6321406-7.4028385c0 1.6957466 1.0521871 2.8283137 2.5261294 2.8283137 1.3004856 0 2.1413548-.7095174 2.3200945-1.9121494 1.2265244 1.3445355 2.8413453 2.1250046 4.7044649 2.1250046 2.1061351 0 3.8926519-.8833491 5.2283571-2.5844171 1.4017421 1.6247949 3.6170581 2.5844171 5.3340161 2.5844171 4.1110137 0 6.9189004-2.4052639 6.9189004-6.8636939v-9.758525c0-1.6975204-1.0530676-2.8283137-2.5278905-2.8283137-1.4748228 0-2.5278904 1.1307933-2.5278904 2.8283137v8.8760627c0 2.0522791-1.1252678 3.5005815-2.9522872 3.5005815-1.8569561 0-2.9813434-1.4483024-2.9813434-3.5005815v-8.8760627c0-1.6975204-1.0530676-2.8283137-2.52701-2.8283137-1.4765838 0-2.5278904 1.1307933-2.5278904 2.8283137v8.8760627c0 2.0522791-1.1226264 3.5005815-2.9478847 3.5005815-2.071796 0-2.9839849-1.4483024-2.9839849-3.5005815v-8.8760627c0-1.6975204-1.0521871-2.8283137-2.5296515-2.8283137-1.4739423 0-2.5261294 1.1307933-2.5261294 2.8283137zm38.6646608-11.9560777c2.6335494 0 3.9331545 2.7582489 3.9331545 5.1253763 0 2.4096985-1.2996051 5.2034232-3.9331545 5.2034232-2.7022277 0-3.9683742-2.5462805-3.9683742-5.0224963 0-2.4762157 1.1939462-5.3063032 3.9683742-5.3063032m-9.022394 11.9562551c0 1.6957466 1.0504261 2.8283137 2.5278904 2.8283137 1.4052641 0 2.2126745-.7840167 2.5261294-2.1250046.9526916 1.55473 2.9188286 2.3378598 4.8101238 2.3378598 5.444958 0 8.1489467-5.1324715 8.1489467-10.0813553 0-4.810528-3.2331639-9.5820326-8.3188815-9.5820326-1.5804818 0-3.3027227.5995423-4.640189 1.7675853v-6.2198069c0-1.6975204-1.0495455-2.8318614-2.5261294-2.8318614-1.4774643 0-2.5278904 1.134341-2.5278904 2.8318614zm20.6074578 8.2008682c0 1.6975203 1.05747 2.8283137 2.5296514 2.8283137 1.4757034 0 2.5278904-1.1307934 2.5278904-2.8283137v-21.7821843c0-1.6957465-1.052187-2.8300875-2.5278904-2.8300875-1.4721814 0-2.5296514 1.134341-2.5296514 2.8300875zm20.742173-13.296977c-.2791157 2.2278847-1.6817383 3.8908161-4.034411 3.8908161-2.2487747 0-3.7596977-1.7338832-4.0044742-3.8908161zm-7.9323458-3.3941538c.3539575-2.5108047 2.421351-3.6779609 4.7757846-3.6779609 2.5974493 0 4.3866075 2.0540529 5.7196713 2.0540529 1.0900482 0 2.0735574-1.0970913 2.0735574-2.1950694 0-2.1915219-4.4957889-4.3147527-8.2493232-4.3147527-5.688854 0-9.4793689 4.174623-9.4793689 9.7931139 0 5.1661736 3.7174341 9.8720477 9.0576136 9.8720477 5.4740142 0 9.0919525-5.0278177 9.0919525-9.2671841 0-1.5219149-.667412-2.2642474-2.2117937-2.2642474z" fill="#60bb46"/><path d="m109.364926 38.8672999c0-1.2639125.273971-2.3075912.821034-3.1336893.638386-.9888413 1.549865-1.4806085 2.734437-1.4806085 1.184571 0 2.096928.4917672 2.734436 1.4806085.547063.8490945.821912 1.8927731.821912 3.1336893 0 1.1931546-.286264 2.2147214-.85528 3.0638159-.662095.9861879-1.560402 1.4806085-2.701068 1.4806085-1.139788 0-2.038973-.4944206-2.701069-1.4806085-.569016-.8490945-.854402-1.8706613-.854402-3.0638159m-2.597451-16.6661326c-1.801005 0-2.701069 1.3222877-2.701069 3.9642098v18.2749898c0 2.6198103.900064 3.9297154 2.701069 3.9297154 1.025633 0 1.879157-.5855214 2.563205-1.7565642 1.18545 1.2400317 2.6677 1.8591631 4.444118 1.8591631 2.460467 0 4.478365-.9861878 6.051061-2.9603325 1.435711-1.8370513 2.154006-4.0287764 2.154006-6.5769444 0-2.5472834-.742004-4.7628893-2.22162-6.6459332-1.572696-2.0652455-3.590595-3.0983104-6.051061-3.0983104-1.687729 0-3.099731.5280306-4.23864 1.5832074v-4.6134133c0-2.6383842-.90182-3.9597875-2.701069-3.9597875m22.42563 16.8211808c0-1.2223423.272215-2.2359488.819278-3.043473.637508-.9446177 1.526156-1.416042 2.6677-1.416042 1.115201 0 1.994189.4714243 2.631698 1.416042.547941.829636.821033 1.8423581.821033 3.043473 0 1.1524688-.284508 2.1439635-.857036 2.9727151-.637508.9207369-1.502447 1.382432-2.595695 1.382432-1.141544 0-2.030192-.450197-2.6677-1.3479375-.547063-.8075242-.819278-1.8105171-.819278-3.0072096m7.110063-7.5932043c-1.072173-1.3558978-2.575499-2.030751-4.512611-2.030751-2.460466 0-4.467827.9959171-6.017693 2.9886357-1.435711 1.8326289-2.153127 4.0225851-2.153127 6.5663307 0 2.542861.753419 4.741662 2.256744 6.5981717 1.595527 1.9944875 3.6345 2.9904046 6.119554 2.9904046 1.731634 0 3.165589-.6430122 4.307133-1.9281521.615555 1.1710428 1.469957 1.7565642 2.564083 1.7565642 1.777296 0 2.666822-1.3107896 2.666822-3.9314843v-10.9373983c0-2.6445755-.889526-3.9668633-2.666822-3.9668633-1.116079 0-1.971358.6323985-2.564083 1.8945421m21.193729 16.9413807c.775371 0 1.407611-.2361544 1.898475-.7058098.489986-.4723088.734979-1.0976315.734979-1.8768525 0-.5501425-.150157-1.182541-.444324-1.8927732l-8.205945-19.6273496c-.612921-1.4691103-1.402343-2.2032233-2.358605-2.2032233-.796447 0-1.441858.23527-1.930088.7049253-.490863.4696554-.734978 1.1073608-.734978 1.9113471 0 .8031019.363538 1.9741447 1.093248 3.5113595.523354 1.079942 1.047586 2.1457325 1.571818 3.2017937l-5.434627 12.7753341c-.182647.4360454-.272215 1.0206823-.272215 1.7556797 0 .6660085.259921 1.2409162.785909 1.7220698.522476.4829225 1.127494.7234992 1.809786.7234992.751663 0 1.356682-.2662265 1.813299-.796026.295923-.366172.603262-.9782276.922016-1.8282066l3.043532-8.2220649 3.315746 8.668724c.546185 1.4514209 1.344388 2.1775735 2.391974 2.1775735" fill="#00a8e5"/><path d="m88.3766169 12.9759642c-.8880495 0-1.8941533-.4543429-2.4738523-3.22202669-.6457741-3.07943565.6422501-3.2760519 1.2651182-3.2760519.566484 0 1.7734561.31086624 2.3742991 3.25833873.4202378 2.06181366.0863382 3.23973986-1.165565 3.23973986m4.4138177-3.23973986c-.8122834-4.6585653-3.6958014-5.25284235-6.1388187-5.25284235-2.4086582 0-4.6287821 1.66858118-3.999747 5.27675513.4898369 2.81905198 2.1558108 5.42820278 6.2048938 5.22892958 2.824491-.1390484 4.4860599-2.0848408 3.9336719-5.25284236m4.2975255-5.21511329c.3858787 0 1.0959659.09565115 1.700333.20901548l.1524133.15233331.5656029 1.97590479-.1118872.09387983c-.3400665-.11336433-.9409096-.34629259-1.3981494-.16384688-.5338869.21167246-.8149264.09830813-.2810395 2.31776909.4942419 2.05295713.8475235 3.52669333.8475235 3.52669333l1.7382163-.0380833.150651.1337345c.24668.892744.321566 1.1017595.586747 1.8997381l-.074885.1328488-1.9285125-.0371977.8307845 3.3052787-.1127682.1133643c-1.3030013-.3790619-1.682713-.4738274-3.0993634-.7970929l-.1312693-.1328488-.5497449-2.4515036h-1.2457362l-.1330312-.0947655-.547983-1.9183369.1127682-.153219 1.3232643.0380833s-.4299287-1.8288854-1.0281288-4.27596068c-.8862875-3.6179162 1.2069721-3.83578827 2.6341946-3.83578827zm2.2854942-4.52111105c.6986347.01948449 1.2668807.05668216 1.9082497.05668216.434333 0 .850166-.01859883 1.285381-.01859883l.13215.09476549 1.076584 4.53988702c2.002517 0 4.365363-.01771318 6.23661 2.27968575.982317 1.19652504 1.454533 2.8119667 1.454533 4.17942391 0 2.4134202-1.265999 3.8384452-3.156628 3.8384452-1.227235 0-2.0404-.5703642-2.531998-.9122285l.227298.8360619-.113649.1328488-3.231514-.532281-.133031-.1328488c-.061167-.741676-.667332-3.9748367-1.386861-7.17127999l-.145289-.63805c-.073273-.31803112-.147392-.6340096-.221924-.94540724-.8290227-3.46115459-1.4950599-5.47425705-1.4950599-5.47425705zm7.4065797 7.52278586c-.661632-.55087977-1.63602-.84846113-2.531998-.74041076l1.208734 5.3945478c.398213.2665833.813164.5517654 1.362028.5517654.377069 0 1.39815-.1904166 1.39815-1.7863738 0-1.44362385-.680133-2.77388337-1.436914-3.41952864zm-38.4659365-6.43183135c5.15474 0 9.3333303 4.2006797 9.3333303 9.40392519l-3.3724739.0017713c0-3.35841819-2.6879357-6.0153946-5.9608564-6.0153946-3.2923028 0-5.9608565 2.68266051-5.9608565 5.9932531 0 3.3061643 2.6623867 5.9861679 5.9494034 5.9923675v3.3911875c-5.149454-.0061996-9.3227582-4.205108-9.3227582-9.383555 0-5.18287529 4.1794713-9.38355499 9.3342113-9.38355499zm5.2658343 12.26991699c1.3118112 0 2.3734181 1.0681046 2.3734181 2.3850792 0 1.318746-1.0616069 2.3859648-2.3734181 2.3859648-1.3100493 0-2.3725372-1.0672188-2.3725372-2.3859648 0-1.3169746 1.0624879-2.3850792 2.3725372-2.3850792zm-5.2427521-7.04975545c2.286199 0 4.1398262 1.86431178 4.1398262 4.16259635 0 2.2991703-1.8536272 4.1625964-4.1407072 4.1625964-2.286199 0-4.1407072-1.8634261-4.1407072-4.1625964 0-2.29828457 1.8545082-4.16259635 4.1415882-4.16259635zm56.8156133-1.4559345-.112768-.09830813-1.404317-.02922674-.113649.09919379.563841 2.55778262.547983 2.64369151.80083 3.6745984-3.205964-5.99236747-1.546158-2.88370506-.111006-.06996705-1.393745-.02922674-.068718.09919379-.141841 2.04941447-.449311 6.76909026-.576175-2.2752575-.927694-3.46292592-.786735-3.09449185-.085457-.06996705-1.264237-.0150562-.07048.09919379.814926 2.78451127.997294 3.56034836.942671 3.491267.099554.0699671 2.065067.0150562.085457-.0850233.153295-2.5294415.197344-2.75617021c.113649-1.52599011.126864-1.82268581.16739-2.99618372l2.925806 5.62481903 1.391983 2.6569764.126864.0699671 2.108237.0292267.069599-.0991938-.674847-3.5036662-.534768-2.89876126zm7.311343 4.69239746c0 1.42768199-.913598 1.66769549-1.433389 1.66769549-2.20779 0-2.488829-3.44786968-2.488829-3.97217969 0-1.13010063.675728-1.6251839 1.435151-1.6251839 1.50387 0 2.06683 1.55521686 2.318796 2.71365857.097791.41094568.168271.81923439.168271 1.21600953m-2.51614-4.97474549c-1.869485 0-2.896733.97511034-2.896733 2.8978756 0 1.72437769.91448 4.77635788 3.979484 4.77635788 1.841293 0 2.937259-1.0317925 2.937259-2.85447828 0-.49596893-.083695-1.00433708-.210559-1.49942035-.30747-1.21512387-1.165565-3.32033485-3.809451-3.32033485m6.059969 1.27171748.224655-.01417054c.731232 0 1.743503 0 2.657982.62173248 1.040463.72092626 1.5303 1.97856176 1.5303 2.88281939 0 1.28597657-.770877 1.78105987-1.67126 1.78105987-.717135 0-1.225473-.3108663-1.673903-.5933914zm-1.71531-1.03179251.747089 3.1945713.573532 2.58612371c.253729 1.0592479.49248 2.133552.704802 3.1804007.182367.8892015.23787 1.2142383.323327 1.8643118l.111887.1000795 1.533824.2674689.069599-.0991938-.395569-1.5685017-.645775-2.7136586c.591152.3250368 1.153231.6359031 2.053615.6359031 1.39022 0 2.558428-.9458836 2.558428-2.72694349 0-.72092627-.225536-2.07775555-1.168208-3.16623022-1.265118-1.45513741-2.824491-1.5543312-4.639354-1.62429824h-.773519l-.984079-.0150562zm11.344481-.11371859 1.436032.04339728.112768.08502325c.335662 1.89442418.407023 2.28854234.94091 4.77635792l.547983 2.61446475.829022 3.7029395-.069599.0841376-1.546157-.267469-.097792-.1000794c-.169152-1.3984553-.533886-3.1370035-.858976-4.6346525l-.701277-3.29199381-.647536-2.92621668zm-1.319829 9.1723254 1.474797.1983876.111887.1133643.324209 1.3001471-.111888.0991938-1.461581-.184217-.125983-.1124787-.295136-1.3010328zm-2.025422-9.15771203 1.489773.04339728.097792.06996705.408784 2.13443771.296017 1.45602307c.421119 1.92099392.506576 2.30271292.857214 3.67371272l-.071361.0983081-1.532062-.2249573-.097791-.1000795c-.154175-1.0167363-.197344-1.2850909-.450191-2.43113337l-.183249-.8750309c-.37883-1.70932149-.49248-2.17694933-.884525-3.75962161zm-96.9504313 2.36045784c.1339123.41360266.1814863.92728477.1814863 1.65441064 0 .71118402-.047574 1.22398047-.1814863 1.65352495-.2634194.7784941-.8536905 1.1912111-1.727644 1.1912111-.8704295 0-1.4800826-.3967751-1.743502-1.1912111-.1312693-.39677511-.1814863-.859089-.1814863-1.65352495 0-.79443594.050217-1.27357735.1814863-1.65441064.2634194-.79443594.8730725-1.2080386 1.743502-1.2080386.8739535 0 1.4642246.42954451 1.727644 1.2080386m-4.8692955-2.31599776c-.0995531 0-.1647473.06553875-.1647473.16561819v10.91751606c0 .0991938.0651942.1647325.1647473.1647325h1.0519159c.1004341 0 .1647473-.0655387.1647473-.1647325v-4.0696022h.016739c.3788306.6288177 1.0527968 1.0920173 2.2377439 1.0920173 1.3655524 0 2.321439-.6447596 2.7152467-1.9023951.2140834-.6288178.2801585-1.25674985.2801585-2.23274585 0-.99282351-.0660751-1.61986995-.2801585-2.25045901-.3938077-1.25674984-1.3496943-1.90151067-2.7152467-1.90151067-1.1849471-.00088444-1.8589133.48002829-2.2377439 1.10796038h-.016739v-.76078091c0-.10007944-.0643132-.16561819-.1647473-.16561819zm8.685618-2.97714207c-.0986722 0-.1638663.06642441-.1638663.1656182v.95828282c0 .10007945.0651941.16650386.1638663.16650386h.2977785c.6404881 0 .9867217.28075384 1.3320743 1.19121109l.2634195.72801153-2.8967331 7.52544282c-.032597.0991938.0167391.1656182.1321503.1656182h1.150588c.0995532 0 .1647473-.0495969.1982253-.1656182l2.0738777-5.72312716h.033478l1.9901825 5.72312716c.032597.1160213.0977912.1656182.1964633.1656182h1.120634c.0969102 0 .1638663-.0664244.1295072-.1656182l-3.1090544-8.36947566c-.6915862-1.86962573-1.2985963-2.36559466-2.4844244-2.36559466z" fill="#939598"/></g><path d="m0 3.01646444c0-1.66611609 1.34553463-3.01646444 3.00522277-3.01646444 1.66066529 0 3.00619992 1.35034835 3.00619992 3.01646444 0 1.66709673-1.34553463 3.01744509-3.00619992 3.01744509-1.65968814 0-3.00522277-1.35034836-3.00522277-3.01744509" fill="url(#a)" transform="matrix(1 0 0 -1 11.45219 16.457184)"/><path d="m0 17.155406c0-9.47499329 7.65401071-17.155406 17.094739-17.155406 3.2802903 0 6.3465849.9276903 8.9492221 2.53692897 4.4670382 2.76002574 7.5699759 7.52399983 8.0702764 13.04454163.026383.2961548.1035778 1.244929.1153036 1.3988903.0053743.0475613.0073286.0941419.0107486.1407225.0073287.1098323.012703.2181936.0175887.3250839.0009772.0505032.0024429.1010065.00342.1524903.0019543.1113032.0019543.2221161 0 .332929 0 .0402065 0 .0799226-.0019543.1211097-.0039086.1505291-.0107486.302529-.0224744.4520774 0 .0019613-.0009771.0044129-.0009771.0068645-.0117258.1466065-.0278488.290271-.0473918.4354065-.0039086.0367742-.0092829.0735484-.0141686.1108129-.0171002.1122839-.0337117.2235871-.0542318.3339097-.0058629.0372645-.0136801.0764903-.0214973.1147354-.0224745.1196387-.0473918.2368258-.0767062.3540129-.0048858.0235355-.0102601.0475613-.0151459.0706065-.0405517.1652387-.0517889.2603613-.0923406.393729-.022963.1245419-.065469.2039742-.1221436.4050064-.6507815 1.7872258-1.8385065 3.2224-3.3960825 3.9578838-.0312688.0147097-.0640033.0304-.094295.0451097-.0210087.0093161-.0425059.0176516-.0635147.0269677-.033223.0142194-.0684004.0299097-.1016235.0431484-.0615604.0254968-.1245865.0509936-.1876127.0750194-.0083057.0029419-.0171001.0063742-.0258944.0098064-.3722939.1372903-.7626651.2373161-1.1667163.291742-.4235943.0573677-.8432799.0617806-1.2580798.0225548.0219859.0024516.0410403.0049032.0615604.0068645-.0224744-.0019613-.045926-.0053935-.0698662-.0068645-.0346888-.0039226-.0684004-.0068645-.1006463-.0107871-.107975-.0117677-.2149729-.0284387-.3219707-.0456-.9903409-.1706323-1.9303585-.6016258-2.7604469-1.2385548l.0444603.0304s-.7563136-.5349419-1.6005706-1.9622709c-.4700088-.7953032-.968355-1.8676387-1.3792463-3.2753548-.0288259-.1117935-.0610718-.2216258-.0923406-.331458 0-.0009807-.0014657-.0019613-.0014657-.0019613-.2652961-.9821161-.6331928-1.7058322-.9849666-2.3231484-.4436258-.7786322-.9077717-1.3724128-1.5951962-1.9416773-1.3719177-1.2807226-3.0921891-2.0088516-4.8901439-1.9323613-.2775104.0088258-.5569751.0348129-.8349741.0813936-3.95012615.6712516-6.50390592 5.0714063-5.7021549 9.8299868.00732862.0451097.01710012.0897291.02491731.1343484.43092286 2.5045677 1.7144085 4.6085418 3.42490839 5.9118192.7416564.5668129 1.5653932.9801548 2.4311476 1.213058.2775104.0735484.5584408.1299355.8437684.1647484.3703396.0529549.7475192.0715871 1.1261646.0554065.0747519-.0044129.1519467-.0098065.2306072-.0171613.4558402-.0406968.9664007-.1358194 1.5267959-.3226323.2828847-.0931612.5774952-.2083871.8848087-.3525419 1.207268-.5668129 1.9684673-.9801548 2.6886264-1.2331612.0029314-.0024517.0053743-.002942.0087943-.0039226.0019543-.0009807.0039086-.0009807.0073286-.002942.1021122-.0372645.2047128-.0691354.3082907-.0975742.0097715-.0034322.0205201-.0058838.0312687-.0083354 1.6650625-.4461936 3.349668.2608516 3.8656028 1.6808257.3395594.9325936.0967378 1.9563871-.5511122 2.7580645-.2315844.285858-.5149577.5427871-.840837.7575483-.3297879.2397678-.7494736.4937549-1.2702942.7246968-1.6474737.7261677-3.226547.7683355-3.9271631.8355097-.3268565.0196129-.6576215.0313806-.9893637.0313806-2.4975937 0-4.8710894-.5378839-7.0100693-1.5043096-5.94546513-2.6864774-10.0846697-8.6836127-10.0846697-15.6501158z" fill="url(#b)" transform="matrix(1 0 0 -1 0 34.55548)"/><g transform="matrix(1 0 0 -1 .000489 34.55548)"><path d="m6.35489068 9.38428364c-.17295543.0500129-.33613937.12993548-.49688044.20250322-.47978032.18289032-.9468577.42707094-1.39439209.74774194-.41968564.3520516-.79442241.758529-1.12176744 1.2061935-.45486301.5143484-.79881957 1.0860645-1.0548327 1.6989677-.73335057 1.5101935-1.12860748 3.3253677-1.13886755 5.2788128-.00928291 1.7803612.300962 3.6769289.96933214 5.5646708.69475318 1.9632516 1.69584267 3.689187 2.88210196 5.0954321-.39330261-.378529-.77487942-.7712774-1.14277615-1.1708903-2.4106274-2.9561547-3.85680841-6.7340901-3.85680841-10.8527997 0-.7109677.04348315-1.412129.12751799-2.0990709.57505238-4.7296515 3.06727175-8.86405141 6.67295278-11.59809005 2.44287333-1.71171608 5.28686643-2.87525154 8.23052883-3.33370314.6766759-.08090322 1.3650776-.12405161 2.0632508-.12405161 3.2802903 0 6.3465849.9276903 8.9492222 2.53692897 2.009019 1.24198706 3.7410162 2.89094186 5.0860622 4.83016762-4.2002764 4.38446441-11.6906146 5.85592241-16.6003014 3.54748381-4.90822108-2.52418061-6.46335424-2.14025804-8.17434272-1.53029676z" fill="url(#c)"/><path d="m21.6018403 11.9800513c-2.3187754-7.21999981-4.1968564-8.35999978-6.4438113-9.43233523-.2164386-.12061936-.4494887-.20005161-.6786302-.28683871-.6405214-.29027096-1.3289231-.50650321-2.071068-.63153547-.7460535-.06766451-1.50139-.03726451-2.2528178.07796129-.21350713.01274839-.42457138.03579355-.63319276.06423226 2.28262086-1.1341161 4.85398926-1.77153544 7.57193016-1.77153544 3.2802903 0 6.3465849.9276903 8.9492222 2.53692897 4.4665496 2.75953541 7.5699758 7.52399983 8.0702763 13.04454163.0268716.2961548.1030892 1.244929.1153036 1.3988903.0053743.0470709.0073286.0941419.0102601.1407225.0078172.109342.0131915.2181936.0180772.3250839.0009772.0505032.0024429.1010065.0034201.1524903.0024428.1108129.0024428.2221161 0 .3324387 0 .0406968 0 .0804129-.0019543.1216-.0039086.1505291-.0107487.302529-.0224745.4515871 0 .0024516-.0014657.0049032-.0014657.0073548-.0112372.1466065-.0273602.290271-.0469032.4358968-.00342.0362839-.0087943.0730581-.0141686.1103226-.0171001.1122839-.0332231.2230968-.0542318.3339097-.0058629.0377548-.0136801.0764903-.0214973.1142451-.0224744.1196387-.0478803.2373161-.0767062.3549936-.0043972.0230451-.0102601.0470709-.0151458.0696258-.0405517.165729-.0517889.2608516-.0928292.3947096-.022963.124542-.065469.2034839-.1216551.4040258-.2916791.7992258-.690356 1.5273548-1.1813736 2.155458-5.0826422-2.2383225-9.3576705-6.3256514-11.0085643-10.9047739" fill="url(#d)" opacity=".743536"/><path d="m17.6815172 31.6194315c.3229478 0 .6414985-.0132387.9580949-.0308904.6786302-.0657032 2.2083575-.1068903 3.8035537-.8095225.5061634-.2235871.9126575-.469729 1.2326739-.7021419.3165964-.2088774.5897097-.457471.814454-.7340129.0542318-.0691355.104555-.1387613.153901-.2098581.0078172.0235355.0210087.0456.0288259.0696258.3395594.9325936.0972264 1.9563871-.5511122 2.7585548-.2315844.2853677-.5149577.5418064-.840837.757058-.3302765.2402581-.748985.4937549-1.2702941.7246968-1.6474738.7261677-3.2260585.7688258-3.9271632.8355097-.3268564.0196129-.6576215.0318709-.9893637.0318709-2.4975937 0-4.8710894-.5383742-7.0100693-1.5047999-5.94546511-2.6864774-10.0841811-8.6836127-10.0841811-15.6506061 0-3.4214709.99864662-6.6090579 2.71842944-9.28523848-1.02307535 2.16036128-1.59666201 4.57765148-1.59666201 7.12929018 0 6.7502708 4.00826656 12.5605932 9.76856187 15.1622447 2.0720452.9365162 4.3717661 1.4582194 6.7911879 1.4582194z" fill="url(#e)" opacity=".610933"/></g></g></svg>